<svg width="18" height="19" viewBox="0 0 18 19" fill="none" xmlns="http://www.w3.org/2000/svg">
<path d="M9.18994 0.861328C14.0063 0.861328 17.9087 4.76367 17.9087 9.58008C17.9087 14.3965 14.0063 18.2988 9.18994 18.2988C4.37354 18.2988 0.471191 14.3965 0.471191 9.58008C0.471191 4.76367 4.37354 0.861328 9.18994 0.861328ZM5.11182 11.127H9.18994V13.623C9.18994 14.0098 9.64697 14.1855 9.89307 13.9395L13.9009 9.89648C14.0767 9.7207 14.0767 9.47461 13.9009 9.29883L9.89307 5.25586C9.61182 4.97461 9.18994 5.18555 9.18994 5.57227V8.0332H5.11182C4.86572 8.0332 4.68994 8.24414 4.68994 8.45508V10.7051C4.68994 10.9512 4.86572 11.127 5.11182 11.127Z" fill="white"/>
</svg>
