<svg width="21" height="21" viewBox="0 0 21 21" fill="none" xmlns="http://www.w3.org/2000/svg">
<path d="M2.625 0C1.17525 0 0 1.17525 0 2.625V18.375C0 19.8247 1.17525 21 2.625 21H18.375C19.8247 21 21 19.8247 21 18.375V2.625C21 1.17525 19.8247 0 18.375 0H2.625ZM11.1562 5.90625V9.84375H15.0938C15.4562 9.84375 15.75 10.1376 15.75 10.5C15.75 10.8624 15.4562 11.1562 15.0938 11.1562H11.1562V15.0938C11.1562 15.4562 10.8624 15.75 10.5 15.75C10.1376 15.75 9.84375 15.4562 9.84375 15.0938V11.1562H5.90625C5.54381 11.1562 5.25 10.8624 5.25 10.5C5.25 10.1376 5.54381 9.84375 5.90625 9.84375H9.84375V5.90625C9.84375 5.54381 10.1376 5.25 10.5 5.25C10.8624 5.25 11.1562 5.54381 11.1562 5.90625Z" fill="#559BED"/>
</svg>
