<svg width="15" height="15" viewBox="0 0 15 15" fill="none" xmlns="http://www.w3.org/2000/svg">
<path d="M14.1586 12.8633C14.4047 13.1367 14.4047 13.5469 14.1312 13.793L13.3656 14.5586C13.1195 14.832 12.7094 14.832 12.4359 14.5586L9.72891 11.8516C9.59219 11.7148 9.5375 11.5508 9.5375 11.3867V10.9219C8.55312 11.6875 7.35 12.125 6.0375 12.125C2.89297 12.125 0.35 9.58203 0.35 6.4375C0.35 3.32031 2.89297 0.75 6.0375 0.75C9.15469 0.75 11.725 3.32031 11.725 6.4375C11.725 7.77734 11.2602 8.98047 10.5219 9.9375H10.9594C11.1234 9.9375 11.2875 10.0195 11.4242 10.1289L14.1586 12.8633ZM6.0375 9.9375C7.95156 9.9375 9.5375 8.37891 9.5375 6.4375C9.5375 4.52344 7.95156 2.9375 6.0375 2.9375C4.09609 2.9375 2.5375 4.52344 2.5375 6.4375C2.5375 8.37891 4.09609 9.9375 6.0375 9.9375Z" fill="#BDBDBD"/>
</svg>
